<svg width="48" height="48" viewBox="0 0 48 48" fill="none" xmlns="http://www.w3.org/2000/svg">
<path fill-rule="evenodd" clip-rule="evenodd" d="M15.3333 10L16.4164 7.56317C17.3794 5.3964 19.5281 4 21.8992 4H26.1008C28.4719 4 30.6206 5.3964 31.5836 7.56317L32.6667 10H38C41.3137 10 44 12.6863 44 16V38C44 41.3137 41.3137 44 38 44H10C6.68629 44 4 41.3137 4 38V16C4 12.6863 6.68629 10 10 10H15.3333ZM21.8992 7H26.1008C27.2863 7 28.3607 7.6982 28.8422 8.78159L29.3837 10H18.6163L19.1578 8.78159C19.6393 7.6982 20.7137 7 21.8992 7ZM10 13C8.34315 13 7 14.3431 7 16V38C7 39.6569 8.34315 41 10 41H38C39.6569 41 41 39.6569 41 38V16C41 14.3431 39.6569 13 38 13H10Z" fill="white"/>
<path fill-rule="evenodd" clip-rule="evenodd" d="M29.4649 28H38C41.3137 28 44 25.3137 44 22V16C44 12.6863 41.3137 10 38 10H10C6.68629 10 4 12.6863 4 16V22C4 25.3137 6.68629 28 10 28H18.5351C19.2267 29.1956 20.5194 30 22 30H26C27.4806 30 28.7733 29.1956 29.4649 28ZM38 13H10C8.34315 13 7 14.3431 7 16V22C7 23.6569 8.34315 25 10 25H18.126C18.5701 23.2748 20.1362 22 22 22H26C27.8638 22 29.4299 23.2748 29.874 25H38C39.6569 25 41 23.6569 41 22V16C41 14.3431 39.6569 13 38 13ZM22 25H26C26.5523 25 27 25.4477 27 26C27 26.5523 26.5523 27 26 27H22C21.4477 27 21 26.5523 21 26C21 25.4477 21.4477 25 22 25Z" fill="white"/>
</svg>
