<svg width="36" height="40" viewBox="0 0 36 40" fill="none" xmlns="http://www.w3.org/2000/svg">
<path fill-rule="evenodd" clip-rule="evenodd" d="M36 8C36 12.4183 32.4183 16 28 16C23.5817 16 20 12.4183 20 8C20 3.58172 23.5817 0 28 0C32.4183 0 36 3.58172 36 8ZM28 13C30.7614 13 33 10.7614 33 8C33 5.23858 30.7614 3 28 3C25.2386 3 23 5.23858 23 8C23 10.7614 25.2386 13 28 13Z" fill="white"/>
<path fill-rule="evenodd" clip-rule="evenodd" d="M36 32C36 36.4183 32.4183 40 28 40C23.5817 40 20 36.4183 20 32C20 27.5817 23.5817 24 28 24C32.4183 24 36 27.5817 36 32ZM28 37C30.7614 37 33 34.7614 33 32C33 29.2386 30.7614 27 28 27C25.2386 27 23 29.2386 23 32C23 34.7614 25.2386 37 28 37Z" fill="white"/>
<path fill-rule="evenodd" clip-rule="evenodd" d="M13.9666 25.3293L20.488 29.2421C20.8391 28.2861 21.3675 27.4157 22.0333 26.6707L15.5119 22.7579C15.8276 21.8982 16 20.9692 16 20C16 19.0308 15.8276 18.1018 15.5119 17.2421L22.0333 13.3293C21.3675 12.5843 20.8391 11.7139 20.488 10.7579L13.9666 14.6707C12.5016 13.0317 10.3713 12 8 12C3.58172 12 0 15.5817 0 20C0 24.4183 3.58172 28 8 28C10.3713 28 12.5016 26.9683 13.9666 25.3293ZM13 20C13 22.7614 10.7614 25 8 25C5.23858 25 3 22.7614 3 20C3 17.2386 5.23858 15 8 15C10.7614 15 13 17.2386 13 20Z" fill="white"/>
</svg>
