<svg width="36" height="42" viewBox="0 0 36 42" fill="none" xmlns="http://www.w3.org/2000/svg">
<path fill-rule="evenodd" clip-rule="evenodd" d="M18 0C20.2091 0 22 1.79086 22 4H30C33.3137 4 36 6.68629 36 10V36C36 39.3137 33.3137 42 30 42H6C2.68629 42 0 39.3137 0 36V10C0 6.68629 2.68629 4 6 4H14C14 1.79086 15.7909 0 18 0ZM19 4C19 5.65685 20.3431 7 22 7H23V9H13V7H14C15.6569 7 17 5.65685 17 4C17 3.44772 17.4477 3 18 3C18.5523 3 19 3.44772 19 4ZM26 7V10C26 11.1046 25.1046 12 24 12H12C10.8954 12 10 11.1046 10 10V7H6C4.34315 7 3 8.34315 3 10V36C3 37.6569 4.34315 39 6 39H30C31.6569 39 33 37.6569 33 36V10C33 8.34315 31.6569 7 30 7H26Z" fill="white"/>
</svg>
